<?xml version="1.0" standalone="no"?>
<!DOCTYPE svg PUBLIC "-//W3C//DTD SVG 20010904//EN"
 "http://www.w3.org/TR/2001/REC-SVG-20010904/DTD/svg10.dtd">
<svg version="1.0" xmlns="http://www.w3.org/2000/svg"
 width="2495.000000pt" height="641.000000pt" viewBox="0 0 2495.000000 641.000000"
 preserveAspectRatio="xMidYMid meet">
<metadata>
Created by potrace 1.15, written by Peter Selinger 2001-2017
</metadata>
<g transform="translate(0.000000,641.000000) scale(0.100000,-0.100000)"
fill="#000000" stroke="none">
<path d="M21500 4590 l0 -1450 160 0 160 0 0 204 0 203 167 212 c124 158 169
208 179 200 7 -5 162 -192 346 -414 l333 -405 193 0 c155 0 191 3 185 13 -4 7
-199 242 -433 522 -234 281 -429 516 -434 522 -4 8 138 205 399 550 l407 538
-184 3 -183 3 -27 -33 c-15 -18 -236 -305 -492 -636 l-466 -604 0 1011 0 1011
-155 0 -155 0 0 -1450z"/>
<path d="M8140 4560 l0 -1450 150 0 150 0 0 658 c1 698 3 746 50 862 89 225
335 380 602 380 102 0 179 -19 278 -67 100 -48 239 -186 292 -288 76 -148 72
-102 76 -862 l3 -683 145 0 145 0 -3 703 c-3 693 -4 703 -26 782 -78 277 -298
529 -550 631 -126 51 -177 59 -357 59 -166 0 -172 -1 -265 -33 -122 -43 -226
-108 -317 -199 l-73 -72 0 514 0 515 -150 0 -150 0 0 -1450z"/>
<path d="M18775 5349 c-359 -48 -701 -296 -864 -625 -21 -43 -132 -325 -247
-626 -114 -302 -210 -548 -213 -548 -5 0 -139 411 -429 1313 l-53 167 -129 0
-129 0 -85 -262 c-357 -1102 -405 -1243 -413 -1221 -4 12 -152 409 -328 882
l-320 860 -157 1 c-87 0 -158 -3 -158 -7 0 -5 182 -487 404 -1073 l404 -1065
169 -3 168 -2 215 695 c118 382 217 695 220 695 3 0 26 -64 52 -142 26 -79
128 -392 228 -695 l182 -553 172 0 171 0 270 732 c149 402 286 758 305 791 67
115 198 236 327 301 81 40 219 76 319 83 412 27 767 -243 860 -654 23 -102 23
-254 0 -358 -20 -88 -76 -217 -127 -291 -52 -77 -167 -191 -238 -238 -258
-171 -606 -164 -871 17 -129 89 -269 275 -310 415 -7 23 -16 42 -19 42 -3 0
-38 -87 -77 -193 -69 -187 -70 -193 -55 -221 29 -52 209 -232 286 -285 200
-139 436 -203 695 -188 267 16 497 122 695 322 153 154 250 318 302 513 24 88
27 115 27 282 1 159 -2 197 -21 272 -52 205 -139 362 -284 513 -220 229 -469
345 -769 359 -58 3 -136 1 -175 -5z"/>
<path d="M21150 5340 c-443 -95 -788 -427 -900 -866 -32 -123 -40 -298 -40
-830 l0 -504 155 0 155 0 0 503 c0 676 8 747 106 938 124 241 366 416 637 459
l77 13 0 153 0 154 -52 -1 c-29 0 -91 -9 -138 -19z"/>
<path d="M23850 5324 c-173 -37 -352 -174 -423 -324 -59 -127 -72 -247 -41
-398 35 -170 131 -296 284 -370 47 -23 159 -65 250 -93 91 -28 191 -65 224
-82 150 -79 218 -211 195 -374 -18 -124 -88 -220 -197 -271 -51 -24 -69 -27
-167 -27 -109 0 -112 1 -169 35 -121 73 -206 198 -206 302 l0 58 -155 0 -155
0 0 -27 c0 -16 5 -57 11 -92 48 -300 275 -526 574 -571 141 -21 260 -2 404 67
79 38 108 59 181 131 92 93 135 157 171 262 18 53 22 87 23 180 0 271 -112
462 -339 577 -27 14 -127 52 -222 84 -205 69 -264 96 -320 144 -116 99 -127
290 -22 409 58 65 135 100 223 101 169 0 305 -110 306 -247 l0 -48 156 0 157
0 -6 74 c-16 187 -131 348 -318 446 -130 68 -271 86 -419 54z"/>
<path d="M7100 5303 c-185 -31 -378 -170 -455 -328 -78 -159 -72 -400 12 -558
40 -75 135 -166 218 -209 39 -20 151 -62 250 -93 203 -64 279 -100 340 -161
72 -72 90 -121 90 -244 0 -93 -3 -111 -26 -160 -35 -73 -89 -126 -169 -164
-59 -28 -74 -31 -165 -31 -124 0 -171 20 -261 110 -83 82 -114 145 -114 230
l0 65 -156 0 -157 0 6 -77 c25 -324 273 -583 597 -624 95 -11 208 0 302 31
205 69 391 260 443 456 33 125 13 351 -41 456 -37 73 -107 158 -166 203 -87
66 -168 103 -383 175 -201 68 -265 103 -321 177 -81 106 -61 275 43 375 58 56
124 82 208 82 101 0 168 -25 231 -89 54 -54 74 -98 74 -167 l0 -38 155 0 155
0 0 28 c0 61 -23 161 -49 217 -71 152 -234 285 -406 330 -55 14 -193 18 -255
8z"/>
<path d="M11207 5294 c-492 -89 -862 -499 -906 -1005 -49 -541 283 -1036 794
-1184 514 -148 1060 95 1295 579 275 567 49 1241 -509 1516 -200 99 -453 134
-674 94z m403 -304 c269 -76 480 -290 566 -575 24 -79 27 -107 27 -230 0 -123
-3 -151 -27 -230 -72 -238 -220 -417 -431 -521 -129 -63 -196 -79 -345 -78
-148 0 -213 15 -345 79 -389 190 -564 666 -395 1074 107 261 341 452 612 501
81 14 252 4 338 -20z"/>
<path d="M13668 5281 c-115 -25 -175 -45 -284 -96 -219 -102 -393 -253 -557
-487 l-47 -67 0 -250 c0 -138 3 -251 8 -251 4 0 84 109 177 242 198 282 247
343 343 422 387 316 892 285 1191 -74 249 -299 266 -727 40 -1028 -228 -302
-591 -416 -932 -292 -211 77 -411 291 -483 515 -36 113 -51 252 -37 357 10 75
10 99 -1 87 -2 -2 -69 -97 -150 -212 l-146 -208 0 -789 0 -790 140 0 140 0 0
533 0 533 53 -51 c206 -200 444 -301 732 -312 229 -9 405 34 580 141 287 174
486 460 541 779 24 139 15 380 -20 506 -106 382 -406 681 -784 783 -113 30
-383 35 -504 9z"/>
</g>
</svg>
